<?xml version="1.0" encoding="UTF-8"?>
<svg version="1.1" xmlns="http://www.w3.org/2000/svg" width="740" height="527">
<path d="M0 0 C0.90350655 -0.00275974 1.80701311 -0.00551949 2.73789865 -0.00836286 C3.74400833 -0.00630754 4.75011801 -0.00425222 5.78671587 -0.00213462 C6.84944796 -0.00388766 7.91218005 -0.0056407 9.00711614 -0.00744686 C12.61631159 -0.01214866 16.22546748 -0.0096307 19.8346647 -0.00721294 C22.42916348 -0.00907882 25.02366197 -0.01137862 27.61816001 -0.01407826 C33.28403715 -0.01924773 38.94990574 -0.0206468 44.615785 -0.01962215 C53.04120537 -0.01810215 61.46661621 -0.02224805 69.89203473 -0.02749677 C85.81399489 -0.03718785 101.73595184 -0.03998169 117.65791459 -0.04055383 C129.95236017 -0.04101274 142.24680447 -0.04306776 154.54124963 -0.04625446 C158.07564497 -0.04715196 161.61004031 -0.04804177 165.14443564 -0.04892933 C166.02301767 -0.04915038 166.9015997 -0.04937143 167.80680542 -0.04959918 C192.53424473 -0.05575705 217.26168359 -0.05969938 241.9891237 -0.0592559 C242.92218312 -0.05924032 243.85524254 -0.05922474 244.81657648 -0.05920869 C249.54607597 -0.05912558 254.27557545 -0.05902654 259.00507493 -0.05892398 C259.9444262 -0.05890404 260.88377747 -0.05888409 261.85159393 -0.05886354 C263.75119411 -0.05882311 265.65079428 -0.05878131 267.55039446 -0.05873815 C297.10229927 -0.05812545 326.65419261 -0.06562943 356.20609415 -0.07931072 C389.3825863 -0.09466357 422.55907092 -0.10327739 455.73556685 -0.10234749 C459.27184832 -0.10227286 462.80812979 -0.10222415 466.34441125 -0.10219318 C467.2151776 -0.10218152 468.08594394 -0.10216987 468.98309714 -0.10215786 C483.01191613 -0.10212705 497.0407252 -0.10852015 511.06954124 -0.11712544 C525.16511523 -0.12559294 539.26067464 -0.12659901 553.35624976 -0.12001612 C561.73537219 -0.11631414 570.1144504 -0.11817206 578.49356815 -0.12795846 C584.74341491 -0.13464247 590.99321422 -0.13092252 597.24305873 -0.12308524 C599.77678428 -0.12154028 602.31051458 -0.12340351 604.84423454 -0.12894531 C608.27850024 -0.13596162 611.71253514 -0.1307461 615.14679277 -0.12238914 C616.13885545 -0.12735732 617.13091814 -0.1323255 618.15304333 -0.13744423 C623.45862581 -0.11000268 627.82343366 0.39383452 632.84427774 2.12649983 C633.59418985 2.34652669 634.34410196 2.56655354 635.11673868 2.79324788 C652.70191486 8.12613418 665.887395 15.30006394 675.1811918 31.75247639 C677.66311072 36.39824794 679.2411631 40.9865427 680.37162149 46.11478108 C680.65464914 48.11241479 680.65464914 48.11241479 681.84427774 49.12649983 C681.94516988 51.3915283 681.973529 53.6597798 681.9757055 55.92705315 C681.97878446 57.01165723 681.97878446 57.01165723 681.98192561 58.1181725 C681.9876372 60.57193841 681.98613327 63.02564892 681.98471963 65.47942036 C681.98730091 67.2441219 681.9903134 69.00882285 681.99372303 70.77352297 C682.00182456 75.64709679 682.00358436 80.52065591 682.0043205 85.39423567 C682.00616566 90.64118626 682.01371037 95.88812912 682.02045572 101.13507527 C682.03406308 112.62072306 682.04006782 124.10636737 682.04446638 135.59202188 C682.04722539 142.75999862 682.05146217 149.927974 682.05597055 157.09594983 C682.06816758 176.92999788 682.07846524 196.76404483 682.08184564 216.59809655 C682.08206521 217.86865416 682.08228477 219.13921177 682.08251099 220.44827112 C682.08272927 221.72193203 682.08294755 222.99559295 682.08317244 224.30784965 C682.08361591 226.88891989 682.08406248 229.46999013 682.08451211 232.05106038 C682.08473354 233.33137013 682.08495497 234.61167988 682.08518311 235.9307869 C682.0891305 256.67318518 682.10658079 277.4155483 682.12987164 298.157933 C682.1535743 319.43839822 682.16604704 340.7188458 682.16721356 361.99932444 C682.16813106 373.95362699 682.17390206 385.90788378 682.19203317 397.86217374 C682.20741969 408.04308013 682.21256327 418.22392664 682.20429507 428.40484244 C682.2003831 433.60069428 682.20134475 438.79642548 682.21535242 443.99226254 C682.22805885 448.74891564 682.22692246 453.50535706 682.2147617 458.26200973 C682.21279902 459.98283958 682.21590943 461.70368426 682.22460607 463.42449326 C682.23568526 465.76493817 682.22821961 468.10463424 682.21621454 470.44505852 C682.21711017 472.39448903 682.21711017 472.39448903 682.2180239 474.38330197 C681.78531573 478.71702488 680.53454035 482.15349042 678.84427774 486.12649983 C678.45626993 487.14614827 678.06826211 488.16579671 677.66849649 489.21634358 C675.05322948 495.76799185 672.05454086 501.46754403 667.84427774 507.12649983 C667.10177774 508.15774983 666.35927774 509.18899983 665.59427774 510.25149983 C658.56087565 517.60460202 650.25123663 521.57394251 640.84427774 525.12649983 C640.18294975 525.4727625 639.52162176 525.81902517 638.84025353 526.17578065 C634.30116539 527.61617886 629.88121533 527.40132977 625.14694631 527.38097543 C624.05119609 527.3841819 622.95544586 527.38738838 621.82649109 527.39069203 C618.12901372 527.39903965 614.43169632 527.39305105 610.73421609 527.38719624 C608.06685141 527.39021476 605.39949843 527.39402153 602.73213738 527.39878881 C596.91942311 527.40756309 591.10674407 527.40885857 585.29402483 527.40528554 C576.65027373 527.39998627 568.00655683 527.40606602 559.36280945 527.41436847 C543.02788344 527.42962647 526.6929729 527.43131167 510.35804125 527.42884544 C497.74523935 527.42701422 485.13244254 527.42876879 472.51964128 527.43306988 C470.708862 527.43367228 468.89808272 527.43427348 467.08730343 527.43487349 C464.35876756 527.43578072 461.63023169 527.43668939 458.90169581 527.43760584 C433.52551168 527.44603821 408.14932946 527.45036912 382.77314413 527.44619912 C381.81606537 527.44604274 380.85898661 527.44588637 379.87290546 527.44572525 C375.0218359 527.44491945 370.17076635 527.44407368 365.31969681 527.44321195 C364.35622612 527.44304086 363.39275543 527.44286977 362.40008867 527.4426935 C360.45171557 527.44234685 358.50334247 527.44199832 356.55496937 527.44164792 C326.23708735 527.4362905 295.91923441 527.44422057 265.60135782 527.46268147 C231.55355343 527.4833892 197.50576706 527.4941265 163.45795602 527.49010599 C159.82875784 527.48971063 156.19955967 527.48934908 152.5703615 527.48900861 C151.67673502 527.48891787 150.78310854 527.48882714 149.86240248 527.48873366 C136.36127874 527.48756678 122.86017317 527.49422289 109.35905397 527.50482053 C94.00697877 527.51685863 78.65494364 527.51844759 63.30286785 527.50603036 C54.70840391 527.49939034 46.11403572 527.50105905 37.51957939 527.51461887 C31.78071442 527.52284444 26.04192139 527.52019054 20.3030623 527.50864361 C17.03187228 527.50236827 13.76090726 527.50248191 10.48972102 527.51250694 C6.96601554 527.52255905 3.44281738 527.51423656 -0.08086741 527.50122994 C-1.09643356 527.50853929 -2.11199972 527.51584863 -3.1583406 527.52337947 C-9.20551921 527.47691471 -13.61755379 526.57411442 -19.15572226 524.12649983 C-20.45123007 523.67017171 -20.45123007 523.67017171 -21.77290976 523.20462483 C-36.28373721 517.88231442 -46.52738685 507.95883253 -53.15572226 494.12649983 C-54.39161654 490.65778144 -55.46011829 487.19777873 -56.42915976 483.64603108 C-56.91200176 481.20905533 -56.91200176 481.20905533 -58.15572226 480.12649983 C-58.2566144 477.86147136 -58.28497352 475.59321986 -58.28715003 473.32594651 C-58.28920266 472.60287713 -58.29125529 471.87980774 -58.29337013 471.13482717 C-58.29908172 468.68106126 -58.29757779 466.22735074 -58.29616416 463.7735793 C-58.29874543 462.00887777 -58.30175792 460.24417682 -58.30516756 458.47947669 C-58.31326908 453.60590287 -58.31502888 448.73234375 -58.31576502 443.85876399 C-58.31761018 438.6118134 -58.32515489 433.36487054 -58.33190024 428.11792439 C-58.3455076 416.6322766 -58.35151234 405.14663229 -58.3559109 393.66097778 C-58.35866991 386.49300104 -58.3629067 379.32502566 -58.36741507 372.15704983 C-58.3796121 352.32300179 -58.38990976 332.48895483 -58.39329016 312.65490311 C-58.39350973 311.3843455 -58.39372929 310.1137879 -58.39395551 308.80472854 C-58.39417379 307.53106763 -58.39439207 306.25740672 -58.39461696 304.94515002 C-58.39506043 302.36407977 -58.395507 299.78300953 -58.39595664 297.20193928 C-58.39617807 295.92162953 -58.3963995 294.64131978 -58.39662763 293.32221276 C-58.40057502 272.57981449 -58.41802531 251.83745136 -58.44131616 231.09506666 C-58.46501882 209.81460144 -58.47749156 188.53415386 -58.47865808 167.25367522 C-58.47957558 155.29937268 -58.48534658 143.34511589 -58.50347769 131.39082593 C-58.51886421 121.20991954 -58.5240078 111.02907302 -58.51573959 100.84815722 C-58.51182763 95.65230538 -58.51278927 90.45657418 -58.52679694 85.26073712 C-58.53950337 80.50408402 -58.53836698 75.7476426 -58.52620623 70.99098993 C-58.52424354 69.27016008 -58.52735395 67.5493154 -58.53605059 65.8285064 C-58.54712978 63.48806149 -58.53966413 61.14836543 -58.52765906 58.80794114 C-58.52825615 57.5083208 -58.52885324 56.20870046 -58.52946842 54.86969769 C-58.09677251 50.53609756 -56.84493411 47.09973351 -55.15572226 43.12649983 C-54.77931601 42.13005452 -54.40290976 41.13360921 -54.01509726 40.10696858 C-47.59971238 23.95555947 -38.72741684 13.0944988 -22.84712851 5.56399983 C-17.90059968 3.63773252 -13.05963913 2.55249191 -7.82369101 1.63431233 C-4.63389489 1.02717691 -3.41257379 0.00126815 0 0 Z M71.84427774 65.12649983 C71.84427774 139.04649983 71.84427774 212.96649983 71.84427774 289.12649983 C230.24427774 289.12649983 388.64427774 289.12649983 551.84427774 289.12649983 C551.84427774 215.20649983 551.84427774 141.28649983 551.84427774 65.12649983 C393.44427774 65.12649983 235.04427774 65.12649983 71.84427774 65.12649983 Z " fill="#fff200" transform="translate(58.15572226047516,-0.12649983167648315)"/>
</svg>
